HIERARCHY
ROOT Hips
{
  OFFSET 40.8559 100.179 6.11643
  CHANNELS 6 Xposition Yposition Zposition Zrotation Xrotation Yrotation
  JOINT spine
  {
    OFFSET 0 8.81704 0.507024
    CHANNELS 3 Zrotation Xrotation Yrotation
    JOINT spine1
    {
      OFFSET 0 10.7766 0
      CHANNELS 3 Zrotation Xrotation Yrotation
      JOINT spine2
      {
        OFFSET 0 10.3259 0
        CHANNELS 3 Zrotation Xrotation Yrotation
        JOINT Neck
        {
          OFFSET 0 26.511 1.26395
          CHANNELS 3 Zrotation Xrotation Yrotation
          JOINT Head
          {
            OFFSET 0 8.00966 0
            CHANNELS 3 Zrotation Xrotation Yrotation
            End Site
            {
              OFFSET 0 19.3879 -6.39386
            }
          }
        }
        JOINT RightShoulder
        {
          OFFSET -4.34795 11.1512 -0.605422
          CHANNELS 3 Zrotation Xrotation Yrotation
          JOINT RightArm
          {
            OFFSET 0 14.6258 0
            CHANNELS 3 Zrotation Xrotation Yrotation
            JOINT RightArmRoll
            {
              OFFSET 0 7.3834 0
              CHANNELS 3 Zrotation Xrotation Yrotation
              JOINT RightForeArm
              {
                OFFSET 0 21.5052 0
                CHANNELS 3 Zrotation Xrotation Yrotation
                JOINT RightForeArmRoll
                {
                  OFFSET 0 8.28532 0
                  CHANNELS 3 Zrotation Xrotation Yrotation
                  JOINT RightHand
                  {
                    OFFSET 0 16.6268 0
                    CHANNELS 3 Zrotation Xrotation Yrotation
                    End Site
                    {
                      OFFSET 0 0 0
                    }
                  }
                }
              }
            }
          }
        }
        JOINT LeftShoulder
        {
          OFFSET 4.34795 11.1512 -0.605422
          CHANNELS 3 Zrotation Xrotation Yrotation
          JOINT LeftArm
          {
            OFFSET 0 14.6258 0
            CHANNELS 3 Zrotation Xrotation Yrotation
            JOINT LeftArmRoll
            {
              OFFSET 0 7.3834 0
              CHANNELS 3 Zrotation Xrotation Yrotation
              JOINT LeftForeArm
              {
                OFFSET 0 21.5052 0
                CHANNELS 3 Zrotation Xrotation Yrotation
                JOINT LeftForeArmRoll
                {
                  OFFSET 0 8.28532 0
                  CHANNELS 3 Zrotation Xrotation Yrotation
                  JOINT LeftHand
                  {
                    OFFSET 0 16.6268 0
                    CHANNELS 3 Zrotation Xrotation Yrotation
                    End Site
                    {
                      OFFSET 0 0 0
                    }
                  }
                }
              }
            }
          }
        }
      }
    }
  }
  JOINT RightUpLeg
  {
    OFFSET -7.8151 -1.43309 -1.20217
    CHANNELS 3 Zrotation Xrotation Yrotation
    JOINT RightUpLegRoll
    {
      OFFSET 0 19.4959 0
      CHANNELS 3 Zrotation Xrotation Yrotation
      JOINT RightLeg
      {
        OFFSET 0 -24.1427 0
        CHANNELS 3 Zrotation Xrotation Yrotation
        JOINT RightLegRoll
        {
          OFFSET 0 24.2217 0
          CHANNELS 3 Zrotation Xrotation Yrotation
          JOINT RightFoot
          {
            OFFSET 0 20.1605 0
            CHANNELS 3 Zrotation Xrotation Yrotation
            JOINT RightToeBase
            {
              OFFSET 0 16.8532 0
              CHANNELS 3 Zrotation Xrotation Yrotation
              End Site
              {
                OFFSET 0.00714343 8.16187 -0.94078
              }
            }
          }
        }
      }
    }
  }
  JOINT LeftUpLeg
  {
    OFFSET 7.8151 -1.43309 -1.20217
    CHANNELS 3 Zrotation Xrotation Yrotation
    JOINT LeftUpLegRoll
    {
      OFFSET 0 19.496 0
      CHANNELS 3 Zrotation Xrotation Yrotation
      JOINT LeftLeg
      {
        OFFSET 0 24.1426 0
        CHANNELS 3 Zrotation Xrotation Yrotation
        JOINT LeftLegRoll
        {
          OFFSET 0 24.4456 0
          CHANNELS 3 Zrotation Xrotation Yrotation
          JOINT LeftFoot
          {
            OFFSET 0 19.9366 0
            CHANNELS 3 Zrotation Xrotation Yrotation
            JOINT LeftToeBase
            {
              OFFSET 0 16.8532 0
              CHANNELS 3 Zrotation Xrotation Yrotation
              End Site
              {
                OFFSET -0.0320138 8.16187 -0.94078
              }
            }
          }
        }
      }
    }
  }
}
MOTION
Frames: 6
Frame Time: 0.00208333
39.0159 106.177 0.632755 -1.36072 2.23438 1.81258 -0.0867208 -2.50154 0.135709 -0.168588 -1.00048 0.278951 -0.171942 0.644583 0.281795 -9.08342 0.974403 -1.33956 5.64084 11.0735 -2.58664 50.3697 -13.9912 -9.14478 80.8437 8.75049 33.2254 2.65735e-005 -2.97625e-007 2.00506e-006 3.98633 10.8034 -0.860536 -8.50342e-006 -6.46413e-006 -3.00038 8.02976 -4.95146 0.697749 -56.3326 -9.57766 5.93542 -67.7135 20.4642 -29.9209 2.30246e-005 5.11893e-007 1.61399e-006 -3.13599 10.2395 1.31125 2.60947e-006 -5.97027e-006 3 -8.02885 -4.95142 -0.697696 -177.021 11.7377 -1.37925 -180 7.0156e-015 178.983 176.606 25.6007 179.702 -6.48616e-006 -7.35716e-006 0.329086 -18.8501 68.5616 20.01 8.10053 24.5937 -3.05109 -176.707 13.737 0.484239 4.54188e-006 -4.6773e-006 -1.10694 -2.16557 -28.0587 0.375253 1.02248e-006 -1.9416e-007 -0.362018 18.2255 67.7228 -19.3146 -8.07306 24.2604 3.37415 
39.0035 105.938 0.585308 -1.37758 2.26583 1.76123 -0.088236 -2.49133 0.137895 -0.171567 -0.980067 0.283467 -0.174976 0.664997 0.286363 -9.23253 1.00381 -1.32561 5.79292 10.905 -2.58493 50.9865 -13.9252 -9.06556 81.2725 8.75487 33.2133 2.65735e-005 -2.97625e-007 2.00506e-006 3.92485 10.8987 -0.860846 -8.50342e-006 -6.46413e-006 -3.00038 8.02976 -4.95146 0.697749 -56.6085 -9.56899 5.93192 -68.3868 20.1723 -29.6244 2.30246e-005 5.11893e-007 1.61399e-006 -3.17306 10.759 1.33763 2.60947e-006 -5.97027e-006 3 -8.02885 -4.95142 -0.697696 -176.816 11.8655 -1.4931 -180 7.01561e-015 178.986 176.601 25.7112 179.702 -6.48616e-006 -7.35716e-006 0.330437 -18.8448 68.5577 20.0075 8.09876 24.5565 -3.02583 -176.819 13.9166 0.525362 4.54188e-006 -4.6773e-006 -1.10583 -2.18278 -28.3606 0.374091 1.02248e-006 -1.9416e-007 -0.36692 18.2545 67.7591 -19.3443 -8.0695 24.2038 3.36763 
38.9974 105.759 0.542881 -1.39314 2.29612 1.71014 -0.0896986 -2.4809 0.140538 -0.174426 -0.959202 0.288892 -0.177901 0.685861 0.291839 -9.37183 1.03717 -1.31278 5.92997 10.7334 -2.58349 51.5911 -13.861 -8.9892 81.7033 8.76605 33.1906 2.65735e-005 -2.97625e-007 2.00506e-006 3.8707 10.9836 -0.86165 -8.50342e-006 -6.46413e-006 -3.00038 8.02976 -4.95146 0.697749 -56.8786 -9.55854 5.92738 -69.054 19.8844 -29.3188 2.30246e-005 5.11893e-007 1.61399e-006 -3.2219 11.2464 1.36301 2.60947e-006 -5.97027e-006 3 -8.02885 -4.95142 -0.697696 -176.617 11.9942 -1.6039 -180 7.01562e-015 178.989 176.597 25.8297 179.702 -6.48616e-006 -7.35716e-006 0.331893 -18.839 68.5533 20.0045 8.0985 24.5509 -3.022 -176.93 14.093 0.567282 4.54188e-006 -4.6773e-006 -1.10485 -2.19768 -28.6627 0.373648 1.02248e-006 -1.9416e-007 -0.371823 18.2833 67.7951 -19.3737 -8.06896 24.1953 3.36664 
38.9931 105.543 0.522811 -1.4071 2.32493 1.65975 -0.0910278 -2.4703 0.143678 -0.177001 -0.938028 0.295299 -0.180555 0.707035 0.298291 -9.50116 1.07744 -1.30117 6.05012 10.5567 -2.58265 52.1791 -13.7985 -8.91554 82.1378 8.78259 33.1544 2.65735e-005 -2.97625e-007 2.00506e-006 3.82564 11.0563 -0.86311 -8.50342e-006 -6.46413e-006 -3.00038 8.02976 -4.95146 0.697749 -57.1422 -9.54588 5.92152 -69.7135 19.6022 -29.0038 2.30246e-005 5.11893e-007 1.61399e-006 -3.28279 11.6918 1.38697 2.60947e-006 -5.97027e-006 3 -8.02885 -4.95142 -0.697696 -176.423 12.1235 -1.7116 -180 7.01562e-015 178.991 176.596 25.9574 179.701 -6.48616e-006 -7.35716e-006 0.333467 -18.8333 68.5488 20.0013 8.10004 24.5836 -3.0442 -177.042 14.2655 0.611132 4.54188e-006 -4.6773e-006 -1.10398 -2.2093 -28.9643 0.374183 1.02248e-006 -1.9416e-007 -0.37671 18.3116 67.8302 -19.4025 -8.07209 24.245 3.37237 
39.0227 105.338 0.510611 -1.41912 2.35195 1.61053 -0.0921432 -2.45963 0.147354 -0.179131 -0.916682 0.302761 -0.182776 0.72838 0.305791 -9.62036 1.12756 -1.2909 6.15151 10.3728 -2.58272 52.7461 -13.7373 -8.84445 82.5781 8.80309 33.102 2.65735e-005 -2.97625e-007 2.00506e-006 3.79144 11.1148 -0.865382 -8.50342e-006 -6.46413e-006 -3.00037 8.02976 -4.95146 0.697749 -57.3989 -9.53059 5.91408 -70.364 19.3276 -28.6791 2.30246e-005 5.11893e-007 1.61399e-006 -3.356 12.0856 1.40907 2.60947e-006 -5.97027e-006 3 -8.02885 -4.95142 -0.697696 -176.237 12.2536 -1.81613 -180 7.01563e-015 178.994 176.597 26.0956 179.699 -6.48616e-006 -7.35716e-006 0.335177 -18.828 68.5449 19.9985 8.10382 24.6614 -3.09706 -177.154 14.4328 0.658049 4.54188e-006 -4.6773e-006 -1.10324 -2.21662 -29.265 0.375957 1.02248e-006 -1.9416e-007 -0.38156 18.3391 67.8641 -19.4304 -8.07958 24.3633 3.38604 
39.0089 105.119 0.483611 -1.42891 2.37687 1.56292 -0.0929643 -2.44894 0.151607 -0.180653 -0.895307 0.311352 -0.184403 0.749756 0.31441 -9.72925 1.19049 -1.28208 6.23227 10.1796 -2.58403 53.2878 -13.6772 -8.77578 83.0261 8.8261 33.0305 2.65735e-005 -2.97625e-007 2.00506e-006 3.76987 11.1575 -0.868628 -8.50342e-006 -6.46413e-006 -3.00037 8.02976 -4.95146 0.697749 -57.6481 -9.51223 5.9048 -71.004 19.0624 -28.3444 2.30246e-005 5.11893e-007 1.61399e-006 -3.4418 12.4179 1.42885 2.60947e-006 -5.97027e-006 3 -8.02885 -4.95142 -0.697696 -176.057 12.3842 -1.91742 -180 7.01563e-015 178.996 176.602 26.2455 179.696 -6.48616e-006 -7.35716e-006 0.337036 -18.8237 68.5419 19.9964 8.11048 24.7911 -3.18533 -177.267 14.5941 0.709169 4.54188e-006 -4.6773e-006 -1.10263 -2.21864 -29.5641 0.379235 1.02248e-006 -1.9416e-007 -0.386354 18.3654 67.8965 -19.4569 -8.09219 24.5605 3.40892 
